<svg width="17" height="18" fill="none" xmlns="http://www.w3.org/2000/svg"><path d="M1.225 4.951L8.5 8.975l7.275-4.024M8.5 17V8.967m7.5 3.188V5.78c0-.28-.078-.554-.224-.796a1.633 1.633 0 00-.61-.583L9.334 1.214a1.726 1.726 0 00-1.666 0L1.833 4.4c-.253.14-.463.34-.61.583A1.54 1.54 0 001 5.78v6.375c0 .28.077.554.224.796.146.242.356.443.61.582l5.833 3.188a1.725 1.725 0 001.666 0l5.834-3.188c.253-.14.463-.34.61-.582.146-.242.223-.517.223-.796z" stroke="#19191D" stroke-width="2" stroke-linecap="round" stroke-linejoin="round"/></svg>