<svg width="14" height="8" viewBox="0 0 14 8" fill="none" xmlns="http://www.w3.org/2000/svg">
<path d="M6.97062 4.90609L2.26667 0.372418C2.0177 0.133886 1.68091 0 1.32986 0C0.978811 0 0.642024 0.133886 0.393057 0.372418C0.268511 0.491475 0.169655 0.633122 0.102194 0.789187C0.0347322 0.945252 0 1.11265 0 1.28171C0 1.45078 0.0347322 1.61818 0.102194 1.77424C0.169655 1.93031 0.268511 2.07195 0.393057 2.19101L6.02717 7.62117C6.1507 7.74121 6.29767 7.83649 6.45959 7.90151C6.62152 7.96652 6.7952 8 6.97062 8C7.14604 8 7.31972 7.96652 7.48165 7.90151C7.64357 7.83649 7.79054 7.74121 7.91407 7.62117L13.6146 2.19101C13.7378 2.07134 13.8352 1.92942 13.9013 1.77338C13.9675 1.61734 14.001 1.45026 14 1.28171C14.001 1.11317 13.9675 0.946082 13.9013 0.790045C13.8352 0.634008 13.7378 0.492086 13.6146 0.372418C13.3657 0.133886 13.0289 0 12.6778 0C12.3268 0 11.99 0.133886 11.741 0.372418L6.97062 4.90609Z" fill="#5236FF"/>
</svg>
