<svg width="30" height="30" fill="none" xmlns="http://www.w3.org/2000/svg"><circle cx="15" cy="15" r="15" fill="url(#paint0_linear)"/><path d="M19.936 9h-9.122A1.78 1.78 0 009 10.815v9.12a1.78 1.78 0 001.814 1.815h9.122a1.78 1.78 0 001.814-1.814v-9.121A1.78 1.78 0 0019.936 9zm-4.561 10.2c2.109 0 3.825-1.667 3.825-3.678 0-.343-.049-.735-.147-1.03h1.079v5.198c0 .246-.196.49-.49.49h-8.533a.491.491 0 01-.49-.49v-5.247h1.127a3.732 3.732 0 00-.147 1.03c-.049 2.06 1.667 3.727 3.776 3.727zm0-1.471c-1.373 0-2.452-1.079-2.452-2.403s1.079-2.403 2.452-2.403 2.452 1.079 2.452 2.403c0 1.373-1.079 2.403-2.452 2.403zm4.708-5.247c0 .294-.245.54-.54.54H18.17a.544.544 0 01-.54-.54v-1.324c0-.294.246-.54.54-.54h1.373c.294 0 .54.246.54.54v1.324z" fill="#fff"/><defs><linearGradient id="paint0_linear" x1="6.375" y1="26.625" x2="26.25" y2="6" gradientUnits="userSpaceOnUse"><stop stop-color="#EEA054"/><stop offset=".503" stop-color="#D64763"/><stop offset="1" stop-color="#B62A99"/></linearGradient></defs></svg>