<svg width="34" height="24" fill="none" xmlns="http://www.w3.org/2000/svg"><rect x=".5" y=".5" width="33" height="23" rx="3.5" fill="#fff" stroke="#D9D9D9"/><path fill-rule="evenodd" clip-rule="evenodd" d="M17 17.447A6.75 6.75 0 0112.672 19C8.987 19 6 16.09 6 12.5S8.987 6 12.672 6A6.75 6.75 0 0117 7.553 6.75 6.75 0 0121.328 6C25.013 6 28 8.91 28 12.5S25.013 19 21.328 19A6.75 6.75 0 0117 17.447z" fill="#ED0006"/><path fill-rule="evenodd" clip-rule="evenodd" d="M17 17.447c1.435-1.192 2.344-2.966 2.344-4.947 0-1.981-.91-3.755-2.344-4.947A6.75 6.75 0 0121.328 6C25.013 6 28 8.91 28 12.5S25.013 19 21.328 19A6.75 6.75 0 0117 17.447z" fill="#F9A000"/><path fill-rule="evenodd" clip-rule="evenodd" d="M17 17.447c1.435-1.192 2.344-2.966 2.344-4.947 0-1.981-.91-3.755-2.344-4.947-1.435 1.192-2.344 2.966-2.344 4.947 0 1.981.91 3.755 2.344 4.947z" fill="#FF5E00"/></svg>