<svg width="15" height="18" fill="none" xmlns="http://www.w3.org/2000/svg"><path d="M14 7.545C14 12.636 7.5 17 7.5 17S1 12.636 1 7.545c0-1.736.685-3.4 1.904-4.628A6.477 6.477 0 017.5 1c1.724 0 3.377.69 4.596 1.917A6.569 6.569 0 0114 7.545z" stroke="#19191D" stroke-width="2" stroke-linecap="round" stroke-linejoin="round"/><path d="M7.5 9.727a2.174 2.174 0 002.167-2.182c0-1.205-.97-2.181-2.167-2.181a2.174 2.174 0 00-2.167 2.181c0 1.205.97 2.182 2.167 2.182z" stroke="#19191D" stroke-width="2" stroke-linecap="round" stroke-linejoin="round"/></svg>