<svg width="34" height="24" fill="none" xmlns="http://www.w3.org/2000/svg"><rect x=".5" y=".5" width="33" height="23" rx="3.5" fill="#fff" stroke="#D9D9D9"/><path fill-rule="evenodd" clip-rule="evenodd" d="M11 15.938H8.923L7.366 9.732c-.074-.286-.231-.538-.462-.657A6.563 6.563 0 005 8.418v-.24h3.346c.462 0 .808.36.866.777l.808 4.476 2.076-5.252h2.02L11 15.938zm4.27 0h-1.962l1.616-7.76h1.961l-1.615 7.76zm4.153-5.61c.058-.418.404-.656.808-.656a3.52 3.52 0 011.904.357l.346-1.67A4.78 4.78 0 0020.693 8c-1.904 0-3.29 1.075-3.29 2.566 0 1.135.982 1.73 1.675 2.09.749.358 1.038.596.98.954 0 .537-.577.776-1.154.776-.692 0-1.385-.179-2.019-.478l-.346 1.672a5.448 5.448 0 002.134.418c2.135.059 3.462-1.015 3.462-2.627 0-2.029-2.712-2.148-2.712-3.043zM29 15.938l-1.558-7.76H25.77a.871.871 0 00-.809.598l-2.884 7.162h2.02l.403-1.134h2.48l.232 1.134H29zm-2.942-5.67l.576 2.925H25.02l1.04-2.925z" fill="#172B85"/></svg>