<svg width="30" height="30" fill="none" xmlns="http://www.w3.org/2000/svg"><circle cx="15" cy="15" r="15" fill="#7294C7"/><path d="M22.355 18.836c0-.062-.063-.062-.063-.124-.249-.498-.81-1.12-1.556-1.806-.374-.311-.56-.56-.685-.685-.187-.249-.187-.436-.125-.685.063-.186.312-.498.747-1.058.25-.312.374-.498.56-.685.935-1.245 1.37-2.055 1.246-2.429l-.062-.062c-.062-.062-.125-.124-.25-.124-.124-.063-.31-.063-.497 0H18.868l-.063.062c-.062.062-.062.062-.062.124-.249.685-.56 1.246-.872 1.868-.186.312-.373.623-.56.872-.187.25-.311.436-.436.56-.124.125-.249.187-.311.312-.063.062-.187.124-.187.062-.062 0-.125 0-.125-.062l-.186-.187c-.063-.062-.063-.187-.125-.311v-.312-.373-.374-.685-.56-.436-.374c0-.062-.062-.186-.062-.249l-.187-.187c-.062-.062-.187-.062-.249-.124a5.583 5.583 0 00-1.12-.125c-.997 0-1.682.063-1.931.187-.125.063-.25.125-.311.25-.125.124-.125.186-.063.186.312.062.56.187.685.374l.063.124c.062.063.062.187.124.374s.062.373.062.623v.996c0 .311-.062.498-.062.685 0 .187-.062.311-.125.373-.062.125-.062.187-.124.187 0 0 0 .062-.062.062-.063 0-.125.063-.25.063a.472.472 0 01-.248-.125.75.75 0 01-.312-.311 2.172 2.172 0 01-.373-.56c-.125-.25-.312-.499-.436-.872l-.125-.25a8.784 8.784 0 01-.311-.684c-.125-.312-.25-.56-.374-.872-.062-.125-.124-.187-.187-.25h-.062s-.062-.061-.124-.061c-.063 0-.125-.063-.187-.063H7.348c-.249 0-.373.063-.436.125l-.062.062v.125c0 .062 0 .124.062.249.312.747.685 1.494 1.059 2.241.374.685.747 1.308.996 1.744.312.436.56.872.872 1.245.311.374.498.623.56.747l.25.25.186.186c.125.125.311.312.56.498.25.187.561.374.872.56.312.188.685.312 1.059.437.436.124.81.186 1.183.124h.934a.566.566 0 00.436-.187l.062-.062c0-.062.062-.062.062-.124v-.25c0-.249 0-.435.063-.622.062-.187.062-.312.124-.436a.86.86 0 01.187-.25l.125-.124h.062c.124-.062.311 0 .436.125.186.124.373.311.498.498.124.187.311.374.56.623.25.249.436.436.56.498l.187.124c.125.063.25.125.436.187.187.063.312.062.436.062l2.117-.062c.187 0 .374-.062.498-.124.125-.063.187-.125.187-.25v-.248c-.124-.125-.124-.187-.124-.25z" fill="#fff"/></svg>