<svg width="34" height="24" fill="none" xmlns="http://www.w3.org/2000/svg"><rect x=".5" y=".5" width="33" height="23" rx="3.5" fill="#fff" stroke="#D9D9D9"/><path d="M23 10.293c-.068-.434-.442-.723-.953-.723h-.476c-.307-.037-.375.072-.375.325v3.763c0 .652-.612 1.339-1.327 1.484-2.246.542-4.492 1.049-6.738 1.592-.238.072-.51.072-.783.072-.102 0-.272-.072-.306-.18-.034-.073.068-.218.136-.29.102-.073.238-.145.374-.217.409-.145.851-.29 1.26-.435a274.928 274.928 0 005.002-1.772c.749-.254 1.157-.796 1.157-1.484.034-2.17 0-4.378 0-6.549 0-.362-.17-.651-.544-.796-.443-.18-.851-.036-1.225.145-2.383 1.194-4.73 2.388-7.113 3.582-.68.362-1.089.868-1.089 1.592v6.187c0 .109 0 .217.034.29.238.687.85 1.121 1.668 1.121h9.971c.374 0 .68-.072.953-.326.34-.29.34-.687.34-1.049 0-1.78.034-6.332.034-6.332zm-6.942-.651c.17-.47.544-.76 1.089-.832.374-.036.68.18.748.543.068.542-.544 1.194-1.19 1.194-.511 0-.818-.398-.647-.905z" fill="#FD6727"/></svg>